<?xml version="1.0" encoding="utf-8"?>
<!-- Generator: Adobe Illustrator 17.0.0, SVG Export Plug-In . SVG Version: 6.00 Build 0)  -->
<!DOCTYPE svg PUBLIC "-//W3C//DTD SVG 1.1//EN" "http://www.w3.org/Graphics/SVG/1.1/DTD/svg11.dtd">
<svg version="1.1" id="Layer_1" xmlns="http://www.w3.org/2000/svg" xmlns:xlink="http://www.w3.org/1999/xlink" x="0px" y="0px"
	 width="90px" height="16px" viewBox="0 0 90 16" enable-background="new 0 0 90 16" xml:space="preserve">
<polygon fill="#FBB040" points="16,6 9.9,6 8,0 6.1,6 0,6 5,9.7 3,16 8,12 13,16 11,9.7 "/>
<polygon fill="#FBB040" points="34.5,6 28.4,6 26.5,0 24.6,6 18.5,6 23.5,9.7 21.5,16 26.5,12 31.5,16 29.5,9.7 "/>
<polygon fill="#FBB040" points="53,6 46.9,6 45,0 43.1,6 37,6 42,9.7 40,16 45,12 50,16 48,9.7 "/>
<polygon fill="#FBB040" points="71.5,6 65.4,6 63.5,0 61.6,6 55.5,6 60.5,9.7 58.5,16 63.5,12 68.5,16 66.5,9.7 "/>
<polygon fill="#FBB040" points="90,6 83.9,6 82,0 80.1,6 74,6 79,9.7 77,16 82,12 87,16 85,9.7 "/>
</svg>
