<?xml version="1.0" encoding="utf-8"?>
<!-- Generator: Adobe Illustrator 17.0.0, SVG Export Plug-In . SVG Version: 6.00 Build 0)  -->
<!DOCTYPE svg PUBLIC "-//W3C//DTD SVG 1.1//EN" "http://www.w3.org/Graphics/SVG/1.1/DTD/svg11.dtd">
<svg version="1.1" id="Layer_1" xmlns="http://www.w3.org/2000/svg" xmlns:xlink="http://www.w3.org/1999/xlink" x="0px" y="0px"
	 width="90px" height="16px" viewBox="0 0 90 16" enable-background="new 0 0 90 16" xml:space="preserve">
<g>
	<path fill="#FBB040" d="M8,3.4l0.9,2.9L9.1,7h0.7h3.1l-2.6,1.9L9.7,9.3L9.9,10l1,3.2l-2.4-2L8,10.7l-0.6,0.5l-2.4,2L6,10l0.2-0.7
		L5.6,8.9L3,7h3.1h0.7L7,6.3L8,3.4 M8,0L6.1,6H0l5,3.7L3,16l5-4l5,4l-2-6.3L16,6H9.9L8,0L8,0z"/>
</g>
<g>
	<path fill="#FBB040" d="M26.5,3.4l0.9,2.9L27.6,7h0.7h3.1l-2.6,1.9l-0.6,0.4l0.2,0.7l1,3.2l-2.4-2l-0.6-0.5l-0.6,0.5l-2.4,2l1-3.2
		l0.2-0.7L24,8.9L21.4,7h3.1h0.7l0.2-0.7L26.5,3.4 M26.5,0l-1.9,6h-6.1l5,3.7l-2,6.3l5-4l5,4l-2-6.3l5-3.7h-6.1L26.5,0L26.5,0z"/>
</g>
<g>
	<path fill="#FBB040" d="M45,3.4l0.9,2.9L46.1,7h0.7h3.1l-2.6,1.9l-0.6,0.4l0.2,0.7l1,3.2l-2.4-2L45,10.7l-0.6,0.5l-2.4,2l1-3.2
		l0.2-0.7l-0.6-0.4L40,7h3.1h0.7L44,6.3L45,3.4 M45,0l-1.9,6H37l5,3.7L40,16l5-4l5,4l-2-6.3L53,6h-6.1L45,0L45,0z"/>
</g>
<g>
	<path fill="#FBB040" d="M63.5,3.4l0.9,2.9L64.6,7h0.7h3.1l-2.6,1.9l-0.6,0.4l0.2,0.7l1,3.2l-2.4-2l-0.6-0.5l-0.6,0.5l-2.4,2l1-3.2
		l0.2-0.7L61,8.9L58.4,7h3.1h0.7l0.2-0.7L63.5,3.4 M63.5,0l-1.9,6h-6.1l5,3.7l-2,6.3l5-4l5,4l-2-6.3l5-3.7h-6.1L63.5,0L63.5,0z"/>
</g>
<g>
	<path fill="#FBB040" d="M82,3.4l0.9,2.9L83.1,7h0.7h3.1l-2.6,1.9l-0.6,0.4l0.2,0.7l1,3.2l-2.4-2L82,10.7l-0.6,0.5l-2.4,2l1-3.2
		l0.2-0.7l-0.6-0.4L77,7h3.1h0.7L81,6.3L82,3.4 M82,0l-1.9,6H74l5,3.7L77,16l5-4l5,4l-2-6.3L90,6h-6.1L82,0L82,0z"/>
</g>
</svg>
